<?xml version="1.0" encoding="UTF-8" standalone="no"?><!DOCTYPE svg PUBLIC "-//W3C//DTD SVG 1.1//EN" "http://www.w3.org/Graphics/SVG/1.1/DTD/svg11.dtd"><svg width="100%" height="100%" viewBox="0 0 32 32" version="1.1" xmlns="http://www.w3.org/2000/svg" xmlns:xlink="http://www.w3.org/1999/xlink" xml:space="preserve" xmlns:serif="http://www.serif.com/" style="fill-rule:evenodd;clip-rule:evenodd;stroke-linejoin:round;stroke-miterlimit:1.41421;"><path d="M15.295,0.054c-7.874,0.344 -15.314,16.189 -9,24.089c9.089,11.374 22.961,5.926 24,-3.046c0.88,-7.611 -1.117,-21.65 -15,-21.043Z" style="fill:#cae47e;"/><path d="M26.907,0.035c-3.621,-1.251 -12.749,31.549 -9.708,31.746c7.58,0.491 11.193,-2.221 13.273,-9.124c1.532,-5.082 2.773,-20.433 -3.565,-22.622Z" style="fill:#d4cccc;"/><path d="M3.867,1.291c4.267,-1.064 20.181,28.097 16.986,29.378c-5.205,2.087 -15.069,2.425 -19.129,-9.883c-2.156,-6.538 -3.106,-15.011 2.143,-19.495" style="fill:#d4cccc;"/></svg>